<?xml version="1.0" encoding="UTF-8" standalone="no"?>
<!-- Created with Inkscape (http://www.inkscape.org/) -->

<svg
   width="24in"
   height="24in"
   viewBox="0 0 609.60001 609.6"
   version="1.1"
   id="svg1"
   inkscape:version="1.4.2 (f4327f4, 2025-05-13)"
   sodipodi:docname="Jabo_Inkscape02.svg"
   xmlns:inkscape="http://www.inkscape.org/namespaces/inkscape"
   xmlns:sodipodi="http://sodipodi.sourceforge.net/DTD/sodipodi-0.dtd"
   xmlns="http://www.w3.org/2000/svg"
   xmlns:svg="http://www.w3.org/2000/svg">
  <sodipodi:namedview
     id="namedview1"
     pagecolor="#ffffff"
     bordercolor="#000000"
     borderopacity="0.25"
     inkscape:showpageshadow="2"
     inkscape:pageopacity="0.0"
     inkscape:pagecheckerboard="0"
     inkscape:deskcolor="#d1d1d1"
     inkscape:document-units="in"
     showgrid="false"
     inkscape:zoom="0.92875976"
     inkscape:cx="572.26855"
     inkscape:cy="535.66059"
     inkscape:window-width="1920"
     inkscape:window-height="1017"
     inkscape:window-x="-8"
     inkscape:window-y="-8"
     inkscape:window-maximized="1"
     inkscape:current-layer="layer1">
    <inkscape:grid
       id="grid1"
       units="in"
       originx="0"
       originy="0"
       spacingx="6.3500001"
       spacingy="6.3500001"
       empcolor="#0099e5"
       empopacity="0.30196078"
       color="#0099e5"
       opacity="0.14901961"
       empspacing="4"
       enabled="true"
       visible="false" />
  </sodipodi:namedview>
  <defs
     id="defs1" />
  <g
     inkscape:label="Layer 1"
     inkscape:groupmode="layer"
     id="layer1">
    <path
       id="rect1"
       style="fill:none;stroke:#ff0000;stroke-width:0.0254"
       d="M 127.34417 25.55968 L 127.34417 30.260685 L 135.05171 30.260685 L 135.05171 34.898645 L 127.34417 34.898645 L 127.34417 76.322991 L 178.87022 76.322991 L 178.87022 34.685222 L 171.11307 34.685222 L 171.11307 30.047262 L 178.87022 30.047262 L 178.87022 25.55968 L 127.34417 25.55968 z " />
    <path
       id="rect3"
       style="fill:none;stroke:#ff0000;stroke-width:0.0254"
       d="m 177.76352,82.64214 h -4.01267 v 27.05623 h -3.60753 V 82.64214 h -36.78484 v 27.67428 h -3.60753 V 82.64214 h -2.78743 v 49.91581 h 18.03766 v 4.85966 h 13.3997 v -4.85966 h 19.36264 z" />
    <path
       id="rect3-8"
       style="fill:none;stroke:#ff0000;stroke-width:0.0254"
       d="m 177.24212,202.93448 h -4.01267 v 27.05623 h -3.60753 v -27.05623 h -36.78484 v 27.67428 h -3.60753 v -27.67428 h -2.78743 v 49.91581 h 18.03766 v 4.85966 h 13.3997 v -4.85966 h 19.36264 z" />
    <path
       id="rect5"
       style="fill:none;stroke:#ff0000;stroke-width:0.0254"
       d="m 126.52166,145.84807 v 51.02065 h 51.02118 v -51.02065 z m 19.06861,4.12274 h 12.88396 v 2.57711 h -12.88396 z m -14.99754,14.81305 h 2.57659 v 12.88397 h -2.57659 z m 40.45593,0.51522 h 2.5771 v 12.88396 h -2.5771 z m -24.73751,25.51058 h 12.88449 v 2.57711 h -12.88449 z" />
    <path
       id="rect6"
       style="fill:none;stroke:#ff0000;stroke-width:0.0254"
       d="m 108.19002,167.36827 a 4.7671146,5.1536374 0 0 0 -4.76715,5.14801 H 62.544744 v 50.50545 h 4.122746 v -32.983 h 3.092317 v 32.983 h 36.232933 v -32.90187 h 3.09232 v 32.90187 h 4.22299 v -50.50545 h -0.35088 a 4.7671146,5.1536374 0 0 0 -4.76715,-5.14801 z m -0.55087,3.3445 a 1.5460912,1.8037732 0 0 1 1.54616,1.80351 1.5460912,1.8037732 0 0 1 -1.54616,1.80402 1.5460912,1.8037732 0 0 1 -1.54616,-1.80402 1.5460912,1.8037732 0 0 1 1.54616,-1.80351 z" />
    <path
       id="rect6-9"
       style="fill:none;stroke:#ff0000;stroke-width:0.0254"
       d="m 196.16968,167.08745 a 4.7671146,5.1536374 0 0 1 4.76715,5.14801 h 40.87812 v 50.50545 h -4.12274 v -32.983 h -3.09232 v 32.983 h -36.23293 v -32.90187 h -3.09232 v 32.90187 h -4.223 v -50.50545 h 0.35089 a 4.7671146,5.1536374 0 0 1 4.76715,-5.14801 z m 0.55087,3.3445 a 1.5460912,1.8037732 0 0 0 -1.54616,1.80351 1.5460912,1.8037732 0 0 0 1.54616,1.80402 1.5460912,1.8037732 0 0 0 1.54616,-1.80402 1.5460912,1.8037732 0 0 0 -1.54616,-1.80351 z" />
  </g>
</svg>
